HIERARCHY
ROOT hip
{
  OFFSET 0 0 0
  CHANNELS 6 Xposition Yposition Zposition Zrotation Yrotation Xrotation
  JOINT abdomen
  {
    OFFSET 0 20.6881 -0.73152
    CHANNELS 3 Zrotation Xrotation Yrotation
    JOINT chest
    {
      OFFSET 0 11.7043 -0.48768
      CHANNELS 3 Zrotation Xrotation Yrotation
      JOINT neck
      {
        OFFSET 0 22.1894 -2.19456
        CHANNELS 3 Zrotation Xrotation Yrotation
        JOINT head
        {
          OFFSET -0.24384 7.07133 1.2192
          CHANNELS 3 Zrotation Xrotation Yrotation
          JOINT leftEye
          {
            OFFSET 4.14528 8.04674 8.04672
            CHANNELS 3 Zrotation Xrotation Yrotation
            End Site
            {
              OFFSET 1 0 0
            }
          }
          JOINT rightEye
          {
            OFFSET -3.6576 8.04674 8.04672
            CHANNELS 3 Zrotation Xrotation Yrotation
            End Site
            {
              OFFSET 1 0 0
            }
          }
        }
      }
      JOINT rCollar
      {
        OFFSET -2.68224 19.2634 -4.8768
        CHANNELS 3 Zrotation Xrotation Yrotation
        JOINT rShldr
        {
          OFFSET -8.77824 -1.95073 1.46304
          CHANNELS 3 Zrotation Xrotation Yrotation
          JOINT rForeArm
          {
            OFFSET -28.1742 -1.7115 0.48768
            CHANNELS 3 Zrotation Xrotation Yrotation
            JOINT rHand
            {
              OFFSET -22.5879 0.773209 7.07136
              CHANNELS 3 Zrotation Xrotation Yrotation
              JOINT rThumb1
              {
                OFFSET -1.2192 -0.487915 3.41376
                CHANNELS 3 Zrotation Xrotation Yrotation
                JOINT rThumb2
                {
                  OFFSET -3.37035 -0.52449 3.41376
                  CHANNELS 3 Zrotation Xrotation Yrotation
                  End Site
                  {
                    OFFSET -1.78271 -1.18214 1.43049
                  }
                }
              }
              JOINT rIndex1
              {
                OFFSET -7.75947 0.938293 5.60832
                CHANNELS 3 Zrotation Xrotation Yrotation
                JOINT rIndex2
                {
                  OFFSET -2.54057 -0.884171 1.56538
                  CHANNELS 3 Zrotation Xrotation Yrotation
                  End Site
                  {
                    OFFSET -1.62519 -0.234802 1.16502
                  }
                }
              }
              JOINT rMid1
              {
                OFFSET -8.24714 1.18213 3.41376
                CHANNELS 3 Zrotation Xrotation Yrotation
                JOINT rMid2
                {
                  OFFSET -3.10165 -0.590103 1.0647
                  CHANNELS 3 Zrotation Xrotation Yrotation
                  End Site
                  {
                    OFFSET -2.48547 -0.328903 0.83742
                  }
                }
              }
              JOINT rRing1
              {
                OFFSET -8.82822 0.546677 1.51678
                CHANNELS 3 Zrotation Xrotation Yrotation
                JOINT rRing2
                {
                  OFFSET -2.60934 -0.819778 -0.0198488
                  CHANNELS 3 Zrotation Xrotation Yrotation
                  End Site
                  {
                    OFFSET -2.33842 -0.294052 0.168128
                  }
                }
              }
              JOINT rPinky1
              {
                OFFSET -8.27202 -0.0477905 -0.4584
                CHANNELS 3 Zrotation Xrotation Yrotation
                JOINT rPinky2
                {
                  OFFSET -1.82734 -0.647385 -0.700984
                  CHANNELS 3 Zrotation Xrotation Yrotation
                  End Site
                  {
                    OFFSET -1.69225 -0.51767 -0.607171
                  }
                }
              }
            }
          }
        }
      }
      JOINT lCollar
      {
        OFFSET 2.68224 19.2634 -4.8768
        CHANNELS 3 Zrotation Xrotation Yrotation
        JOINT lShldr
        {
          OFFSET 8.77824 -1.95073 1.46304
          CHANNELS 3 Zrotation Xrotation Yrotation
          JOINT lForeArm
          {
            OFFSET 28.1742 -1.7115 0.48768
            CHANNELS 3 Zrotation Xrotation Yrotation
            JOINT lHand
            {
              OFFSET 22.5879 0.773209 7.07136
              CHANNELS 3 Zrotation Xrotation Yrotation
              JOINT lThumb1
              {
                OFFSET 1.2192 -0.487915 3.41376
                CHANNELS 3 Zrotation Xrotation Yrotation
                JOINT lThumb2
                {
                  OFFSET 3.37035 -0.52449 3.41376
                  CHANNELS 3 Zrotation Xrotation Yrotation
                  End Site
                  {
                    OFFSET 1.78271 -1.18214 1.43049
                  }
                }
              }
              JOINT lIndex1
              {
                OFFSET 7.75947 0.938293 5.60832
                CHANNELS 3 Zrotation Xrotation Yrotation
                JOINT lIndex2
                {
                  OFFSET 2.54057 -0.884171 1.56538
                  CHANNELS 3 Zrotation Xrotation Yrotation
                  End Site
                  {
                    OFFSET 1.62519 -0.234802 1.16502
                  }
                }
              }
              JOINT lMid1
              {
                OFFSET 8.24714 1.18213 3.41376
                CHANNELS 3 Zrotation Xrotation Yrotation
                JOINT lMid2
                {
                  OFFSET 3.10165 -0.590103 1.0647
                  CHANNELS 3 Zrotation Xrotation Yrotation
                  End Site
                  {
                    OFFSET 2.48547 -0.328903 0.83742
                  }
                }
              }
              JOINT lRing1
              {
                OFFSET 8.82822 0.546677 1.51678
                CHANNELS 3 Zrotation Xrotation Yrotation
                JOINT lRing2
                {
                  OFFSET 2.60934 -0.819778 -0.0198488
                  CHANNELS 3 Zrotation Xrotation Yrotation
                  End Site
                  {
                    OFFSET 2.33842 -0.294052 0.168128
                  }
                }
              }
              JOINT lPinky1
              {
                OFFSET 8.27202 -0.0477905 -0.4584
                CHANNELS 3 Zrotation Xrotation Yrotation
                JOINT lPinky2
                {
                  OFFSET 1.82734 -0.647385 -0.700984
                  CHANNELS 3 Zrotation Xrotation Yrotation
                  End Site
                  {
                    OFFSET 1.69225 -0.51767 -0.607171
                  }
                }
              }
            }
          }
        }
      }
    }
  }
  JOINT rButtock
  {
    OFFSET -8.77824 4.35084 1.2192
    CHANNELS 3 Zrotation Xrotation Yrotation
    JOINT rThigh
    {
      OFFSET 0 -1.70687 -2.19456
      CHANNELS 3 Zrotation Xrotation Yrotation
      JOINT rShin
      {
        OFFSET 0 -36.8199 0.73152
        CHANNELS 3 Zrotation Xrotation Yrotation
        JOINT rFoot
        {
          OFFSET 0.73152 -45.1104 -5.12064
          CHANNELS 3 Zrotation Xrotation Yrotation
          End Site
          {
            OFFSET -1.1221 -3.69964 12.103
          }
        }
      }
    }
  }
  JOINT lButtock
  {
    OFFSET 8.77824 4.35084 1.2192
    CHANNELS 3 Zrotation Xrotation Yrotation
    JOINT lThigh
    {
      OFFSET 0 -1.70687 -2.19456
      CHANNELS 3 Zrotation Xrotation Yrotation
      JOINT lShin
      {
        OFFSET 0 -36.8199 0.73152
        CHANNELS 3 Zrotation Xrotation Yrotation
        JOINT lFoot
        {
          OFFSET -0.73152 -45.1104 -5.12064
          CHANNELS 3 Zrotation Xrotation Yrotation
          End Site
          {
            OFFSET 1.1221 -3.69964 12.103
          }
        }
      }
    }
  }
}
MOTION
Frames:	7
Frame Time:	0.03333
20.3584 54.99079999999999 11.0365 -75.783079 -78.248276 83.546465 10.510431 7.736047 -52.964813 7.437838 -2.571605 46.977183 10.556402 19.17344 91.765234 -30.948099 10.082179 -70.70814 14.51103 -2.651325 -20.603882 -14.410604 -0.971063 7.669752 -148.414475 13.408451 148.231059 -108.273914 16.591471 79.380875 -85.730381 45.290392 -149.71633 172.570091 -85.609806 155.417242 -171.454098 -6.352612 89.118317 -17.796268 -25.08154 10.512377 -3.664598 -3.182725 3.807375 -171.031705 -14.162458 117.539352 9.423167 -8.37053 8.864247 166.363966 6.364939 156.814777 -5.571732 9.772495 1.895944 -0.696769 32.402189 9.222787 -6.581427 47.973331 20.843117 2.407501 -23.03886 18.664887 -8.052986 -29.429637 8.187066 -45.30104 3.696912 -57.37637 7.73628 -1.756289 -14.633176 0.706763 47.332641 -8.092632 -17.109721 -31.121 18.409347 25.245809 10.137188 -28.252175 45.124053 42.255623 -39.280951 6.961046 59.117596 -12.779135 22.670118 40.274446 -31.533384 -20.648866 -3.32711 35.178135 158.027803 5.652468 -178.025292 -125.981539 -71.672466 -117.690218 111.353916 77.688942 -138.79934 -2.236486 -17.215738 16.217158 75.271013 37.888114 53.20687 -79.64476 50.125147 -15.320954 27.26044 44.301506 -141.007761 87.245954 48.254978 13.320704 135.051183 79.206656 34.435207 -152.914771 -4.489043 94.359756 82.265991 -22.715934 -26.734953 -136.598136 16.18762 46.617454
21.510299999999997 55.2917 11.8277 -72.875598 -78.350667 80.492845 6.663681 8.32884 44.199419 -1.17001 -9.694803 -49.709068 -9.682224 22.797897 -92.326058 34.305609 11.874346 107.373967 12.846055 -2.218782 -19.520797 -15.177552 -0.847539 6.355105 -21.770678 41.802383 27.861346 -95.667614 -16.140321 175.454154 -24.494295 -6.055369 -147.512237 -164.680297 0.713382 143.548565 -8.942328 4.711031 2.401592 -23.120638 9.330265 7.810756 -132.613145 17.678335 102.625862 -0.289168 30.594109 1.933579 -140.025638 18.57366 124.108422 -37.509956 68.595282 67.859214 -150.789903 -0.354497 -178.701222 -150.584135 -1.507864 -175.623546 -33.312774 81.53176 58.841077 -163.091659 31.083855 -163.962498 -0.774661 25.813018 -5.609674 -66.785921 -38.043008 -97.099287 12.297537 4.317352 -14.880444 -1.858874 37.97834 -8.543067 162.050502 5.101086 -108.40466 138.681971 17.202824 -86.789593 51.353026 44.171251 -44.347282 79.965205 60.996518 -85.175583 116.431013 39.107182 -114.632396 -18.251544 50.978148 -18.124877 157.412015 3.620587 -177.804408 143.581603 40.669681 -136.584744 158.151629 21.456438 158.646025 -27.630851 50.898292 -13.286779 -163.089391 79.045426 -15.444524 138.083518 77.31366 -4.72886 -45.107412 32.688949 -61.613451 140.682052 58.111662 -40.933284 11.254407 -3.638826 14.568001 13.621984 -74.873164 152.035766 83.855701 -37.140644 166.709 -3.980793 68.577826 87.197277
21.9286 55.60040000000001 12.0922 -78.237274 -77.683099 84.580791 8.121907 9.065731 65.884909 -3.843738 -7.152112 -71.603461 -8.368241 20.292849 -91.519172 33.834773 11.771043 110.398042 16.549227 -2.007342 -13.737858 -10.799662 -0.735901 7.773429 2.344747 0.400683 7.454037 -45.68876 -45.082402 -108.760671 -99.624921 57.629634 -140.249087 -1.150088 -75.537162 -11.75048 173.973987 -17.293403 85.663961 -160.562257 -10.372131 84.5511 -65.867662 40.081986 48.015029 -6.932049 17.328488 -5.478742 2.465993 7.220678 17.106075 -39.817573 -21.995633 -41.265644 -149.136526 23.967243 178.879318 -176.282374 52.291673 -161.3774 -154.678966 -0.548463 -131.338336 -157.040471 3.653535 -103.39511 147.29194 5.296326 -162.592121 92.937163 -35.657459 98.527526 -8.655451 43.592238 55.26494 -130.572845 -49.941384 -129.207974 6.683341 19.548043 12.827566 -21.234216 -40.311397 -13.000753 18.122091 32.811174 -16.289103 172.081126 -81.570642 -120.612602 160.380826 -36.145703 -138.286122 157.15616 -7.453998 -105.65859 47.748174 56.245369 -49.14224 123.373497 -60.717407 -172.320673 18.661619 -15.94225 1.888805 119.194561 -51.237601 109.686118 127.928784 75.3199 40.583853 -142.919912 81.83747 142.177965 12.470243 -39.444218 177.075007 -62.707763 -2.42202 2.004009 -136.880464 75.953282 -40.074012 -168.730157 0.247104 91.951497 86.217996 1.322922 120.077736 22.708957 1.683423 153.636021
22.3358 55.131600000000006 12.402199999999999 -80.79243 -77.878488 87.244285 8.6705 6.440156 140.097905 -5.956645 0.161709 -145.920184 10.355243 13.485764 72.016382 -27.987193 -1.789752 -48.361545 14.118036 -2.63264 -21.024669 -5.979853 -0.468718 8.955632 -159.105542 -23.182033 157.006704 -91.815141 34.015502 42.495013 21.718353 -65.61052 -128.257673 -144.051898 35.793267 124.84753 -173.632386 -7.253486 86.805935 10.297708 -47.784502 15.156834 -149.967213 -8.617176 114.890361 -169.271815 -52.196492 115.827201 118.292797 -67.090281 75.150554 -4.732405 -22.872469 43.117505 -137.841926 -35.616837 -156.786558 36.240931 56.87007 -7.740477 -107.923066 -39.839409 -87.372847 -137.763317 28.326088 -108.092113 49.68835 70.212211 -59.324286 -133.421348 -31.858082 -173.361376 3.152945 1.806358 -18.109111 3.070669 56.122541 -8.340477 -9.279111 -9.630816 17.542433 -10.16805 -32.104987 -13.965076 14.249871 24.867921 -12.806907 -22.680538 12.455863 24.98785 -9.674235 8.089643 -9.616132 165.898523 -29.955549 176.250541 144.197419 -68.826493 148.861055 -169.483718 -2.155199 170.259551 130.18827 -44.210621 119.710894 133.809617 58.831286 -178.292073 178.352132 75.576807 1.381707 134.348284 78.270857 144.361787 49.060712 -13.238188 55.683563 -4.047551 26.880635 -179.59119 144.482128 80.655414 27.755117 -151.023854 -1.806191 -92.177215 -86.708101 5.001981 -73.070556 -162.533082 28.635593 -173.605655
22.8487 54.628600000000006 12.7776 -85.693009 -78.083558 92.327065 11.886598 9.160813 -63.554353 6.762608 -1.952606 58.467941 -5.88106 25.684889 -125.334617 28.658991 29.54107 143.145507 14.419025 -2.822049 -22.037773 -4.274534 -0.331982 8.877851 -145.032395 21.105514 147.034429 -121.040197 11.241772 87.97117 133.456732 -5.042843 -40.18437 -34.198692 29.221464 14.850498 -171.612286 -5.542127 87.337995 -162.715565 -12.457584 87.42822 11.804639 -23.375141 -0.531011 175.192295 -27.350848 103.218955 -1.912583 17.694077 20.316495 5.64398 54.233327 -46.787038 -147.752591 -8.012952 -169.960233 31.790467 33.528832 -19.10817 85.886847 79.64632 -64.650325 -16.733522 -14.377414 34.770661 -3.219434 21.208986 -2.809554 85.76397 25.689868 -69.263029 178.815068 -4.204852 163.411055 10.012387 71.715162 -10.659627 -52.113773 -58.122443 -2.694589 19.770608 -1.763955 -21.029475 26.191901 33.757193 -22.427789 16.131823 62.533163 -17.277394 137.63391 9.267377 -129.565282 132.348616 -13.236523 -122.033906 33.880228 -67.296884 31.599221 -122.151301 63.195233 123.726365 21.197209 -27.471902 2.878197 -0.530568 36.986563 -2.013041 17.63333 0.966622 10.796803 -25.482685 10.757973 93.711162 36.800684 -14.150076 -60.370589 -9.99284 -42.328145 -79.33625 -13.188307 -5.62191 -10.877783 76.949912 -54.720958 178.900872 81.902994 -36.792243 3.150995 -3.977063 5.135421 -97.723347
23.4928 54.28849999999999 13.250300000000001 -88.731004 -78.219197 95.574146 9.428498 10.220783 -1.422269 3.985442 -8.252116 -3.196572 9.586607 12.970661 65.929459 -26.352565 -4.642212 -42.822362 16.745017 -2.947354 -19.830002 -5.361735 -0.468878 9.988274 -149.099502 11.162684 149.945839 -120.610822 18.721159 81.307902 -89.496638 58.066953 -151.830874 -4.290578 -77.058807 -15.41473 -141.294801 19.832624 80.010562 89.357569 -59.351939 52.170924 18.170806 -32.185546 -1.04004 -1.838775 5.947498 6.534111 122.098689 -68.732184 79.714465 179.902606 5.084711 105.079499 -3.733186 18.526454 0.725784 -162.183911 18.024918 160.866934 -57.327673 -38.088635 -39.696009 -73.857643 -20.292668 -111.079001 -8.333706 -40.31592 11.209017 78.134207 24.867891 -118.486487 139.668923 -66.170704 132.429076 -0.952561 42.939202 -8.434188 -7.579885 -5.269836 16.580031 151.195412 -16.19646 -85.879635 67.542323 45.120329 -59.989736 -94.611473 -66.258463 -24.177403 150.019949 -12.336842 -132.760902 -117.124221 -42.725248 -67.691787 153.62947 32.100022 -164.150767 38.20902 42.816252 -54.067926 147.191381 -27.022803 135.920925 9.724162 64.571955 -43.185676 -12.108957 1.94156 -15.689599 1.497783 6.93298 27.80925 4.392362 40.396924 -71.582938 -134.136641 -37.188357 -11.623036 -163.562755 81.93364 -13.685373 -159.757522 1.166104 87.714684 75.935085 -1.697998 -74.358651 -73.298635 -0.878752 10.956309
24.2365 54.0246 13.7791 -89.785081 -78.223754 96.806383 10.960414 9.341882 -42.449882 7.011073 -4.21073 37.360701 10.876325 16.468356 85.066758 -29.8266 5.396787 -60.202557 18.709701 -2.762292 -16.652665 -6.933371 -0.645275 10.621385 9.712875 -29.826611 4.11634 128.183105 33.348761 -94.361526 96.950818 48.353522 102.318997 -79.082324 54.259843 60.30242 -170.515561 -5.172524 89.274209 -135.120733 6.5455 76.621612 -23.648342 22.566052 17.382936 -2.987813 2.433547 -6.778938 -23.875548 38.015146 32.144363 -3.618162 -8.234255 -39.700179 -150.184446 8.907515 -177.915707 -153.894124 8.043401 -171.011922 -56.343683 -39.483621 -39.419523 11.488289 -32.435786 -41.53366 147.01966 13.352305 -160.593099 -109.895013 45.312335 105.130902 176.0504 -21.581187 -127.494791 -113.020674 -56.1005 -111.932847 -21.459228 -29.098888 15.410889 -11.479518 -31.913013 -11.392623 2.8715 14.903388 -3.944052 149.207683 2.402154 -128.938253 -65.574991 -62.160466 -29.283272 157.508159 58.994921 -106.168952 111.577041 -74.435721 115.855296 173.549321 -21.122954 160.600571 9.918726 25.5766 -16.754803 125.918706 -17.86175 115.94896 24.034725 -0.427 10.94439 -32.007075 12.717293 104.22206 48.452396 -18.80122 94.694962 -13.979654 56.95813 134.911937 2.404481 -5.940314 0.472838 60.136432 -61.998569 -3.765173 -83.901369 24.03737 -30.506085 -29.21783 58.379334 115.228065
